<svg xmlns="http://www.w3.org/2000/svg" version="1.1" xmlns:xlink="http://www.w3.org/1999/xlink" xmlns:svgjs="http://svgjs.dev/svgjs" width="168" height="166"><svg width="168" height="166" viewBox="0 0 168 166" fill="none" xmlns="http://www.w3.org/2000/svg">
<path d="M167.82 118.8C167.82 149.044 135.807 166 102.106 166C68.4056 166 41.0858 141.482 41.0858 111.238C41.0858 80.9942 68.4056 56.4766 102.106 56.4766C135.807 56.4766 167.82 88.5563 167.82 118.8Z" fill="#1254FF"></path>
<ellipse cx="71.1573" cy="115.054" rx="17.2108" ry="25.3283" transform="rotate(-8.2921 71.1573 115.054)" fill="white"></ellipse>
<ellipse cx="14.5138" cy="14.4571" rx="14.5138" ry="14.4571" transform="matrix(-0.976575 0.215176 0.215176 0.976575 28.3476 31.0284)" fill="#1254FF"></ellipse>
<path fill-rule="evenodd" clip-rule="evenodd" d="M17.9832 48.9892C18.129 52.4426 21.0467 55.1239 24.5001 54.9781C33.454 54.6 40.7882 57.9466 46.4741 62.5053C52.2459 67.1327 56.0626 72.8228 57.7194 76.3829C59.1776 79.5167 62.9002 80.875 66.034 79.4167C69.1678 77.9584 70.5261 74.2358 69.0678 71.102C66.6672 65.9432 61.6994 58.6688 54.3038 52.7395C46.8225 46.7413 36.6066 41.9387 23.9721 42.4722C20.5187 42.618 17.8374 45.5358 17.9832 48.9892Z" fill="#1254FF"></path>
<ellipse cx="14.7506" cy="14.5412" rx="14.7506" ry="14.5412" transform="matrix(-0.978047 -0.208386 -0.208386 0.978047 81.7661 6.14771)" fill="#1254FF"></ellipse>
<path fill-rule="evenodd" clip-rule="evenodd" d="M69.4336 20.9339C68.1368 24.1379 69.6829 27.7865 72.8868 29.0833C81.194 32.4456 86.485 38.5281 89.7738 45.0316C93.1122 51.6332 94.2312 58.3928 94.2655 62.3194C94.2957 65.7758 97.1221 68.5532 100.578 68.5229C104.035 68.4927 106.812 65.6663 106.782 62.21C106.732 56.5202 105.221 47.8419 100.944 39.383C96.6165 30.8259 89.3051 22.2252 77.583 17.4807C74.379 16.1839 70.7304 17.7299 69.4336 20.9339Z" fill="#1254FF"></path>
</svg><style>@media (prefers-color-scheme: light) { :root { filter: none; } }
@media (prefers-color-scheme: dark) { :root { filter: none; } }
</style></svg>